<svg xmlns="http://www.w3.org/2000/svg" viewBox="0 0 48 48" width="48" height="48" preserveAspectRatio="xMidYMid meet" style="width: 100%; height: 100%; transform: translate3d(0px, 0px, 0px);">
  <defs>
    <clipPath id="__lottie_element_2">
      <rect width="48" height="48" x="0" y="0"></rect>
    </clipPath>
  </defs>
  <g clip-path="url(#__lottie_element_2)">
    <g transform="matrix(0,0,0,0,25.825868606567383,52.89949417114258)" opacity="1" style="display: none;">
      <g opacity="1" transform="matrix(1,0,0,1,33.358001708984375,34.641998291015625)">
        <path fill="rgb(32,149,243)" fill-opacity="1" d=" M1.5920000076293945,2.507999897003174 C0.46000000834465027,3.6410000324249268 -1.3760000467300415,3.6410000324249268 -2.509999990463257,2.507999897003174 C-3.6429998874664307,1.3760000467300415 -3.6419999599456787,-0.460999995470047 -2.509999990463257,-1.5920000076293945 C-1.3760000467300415,-2.7239999771118164 3.6429998874664307,-3.6410000324249268 3.6429998874664307,-3.6410000324249268 C3.6429998874664307,-3.6410000324249268 2.7239999771118164,1.3769999742507935 1.5920000076293945,2.507999897003174z"></path>
      </g>
    </g>
    <g style="display: block;" transform="matrix(0.9957789778709412,0,0,0.9957789778709412,0.35401153564453125,-0.4161033630371094)" opacity="1">
      <g opacity="1" transform="matrix(1,0,0,1,33.358001708984375,34.641998291015625)">
        <path fill="rgb(32,149,243)" fill-opacity="1" d=" M1.5920000076293945,2.507999897003174 C0.46000000834465027,3.6410000324249268 -1.3760000467300415,3.6410000324249268 -2.509999990463257,2.507999897003174 C-3.6429998874664307,1.3760000467300415 -3.6419999599456787,-0.460999995470047 -2.509999990463257,-1.5920000076293945 C-1.3760000467300415,-2.7239999771118164 3.6429998874664307,-3.6410000324249268 3.6429998874664307,-3.6410000324249268 C3.6429998874664307,-3.6410000324249268 2.7239999771118164,1.3769999742507935 1.5920000076293945,2.507999897003174z"></path>
      </g>
    </g>
    <g style="display: none;" transform="matrix(0,0,0,0,25.8250675201416,52.901390075683594)" opacity="1">
      <g opacity="1" transform="matrix(1,0,0,1,33.358001708984375,34.641998291015625)">
        <path fill="rgb(32,149,243)" fill-opacity="1" d=" M1.5920000076293945,2.507999897003174 C0.46000000834465027,3.6410000324249268 -1.3760000467300415,3.6410000324249268 -2.509999990463257,2.507999897003174 C-3.6429998874664307,1.3760000467300415 -3.6419999599456787,-0.460999995470047 -2.509999990463257,-1.5920000076293945 C-1.3760000467300415,-2.7239999771118164 3.6429998874664307,-3.6410000324249268 3.6429998874664307,-3.6410000324249268 C3.6429998874664307,-3.6410000324249268 2.7239999771118164,1.3769999742507935 1.5920000076293945,2.507999897003174z"></path>
      </g>
    </g>
    <g transform="matrix(0,0,0,0,14.908061981201172,56.70048904418945)" opacity="1" style="display: none;">
      <g opacity="1" transform="matrix(1,0,0,1,22.358999252319336,38.64099884033203)">
        <path fill="rgb(32,149,243)" fill-opacity="1" d=" M1.5920000076293945,2.509999990463257 C0.46000000834465027,3.6419999599456787 -1.3769999742507935,3.6419999599456787 -2.509999990463257,2.509999990463257 C-3.6429998874664307,1.3760000467300415 -3.6419999599456787,-0.46000000834465027 -2.509999990463257,-1.5920000076293945 C-1.3769999742507935,-2.7239999771118164 3.6429998874664307,-3.6410000324249268 3.6429998874664307,-3.6410000324249268 C3.6429998874664307,-3.6410000324249268 2.7239999771118164,1.378999948501587 1.5920000076293945,2.509999990463257z"></path>
      </g>
    </g>
    <g style="display: block;" transform="matrix(0.987437903881073,0,0,0.987437903881073,0.8001689910888672,-0.8188705444335938)" opacity="1">
      <g opacity="1" transform="matrix(1,0,0,1,22.358999252319336,38.64099884033203)">
        <path fill="rgb(32,149,243)" fill-opacity="1" d=" M1.5920000076293945,2.509999990463257 C0.46000000834465027,3.6419999599456787 -1.3769999742507935,3.6419999599456787 -2.509999990463257,2.509999990463257 C-3.6429998874664307,1.3760000467300415 -3.6419999599456787,-0.46000000834465027 -2.509999990463257,-1.5920000076293945 C-1.3769999742507935,-2.7239999771118164 3.6429998874664307,-3.6410000324249268 3.6429998874664307,-3.6410000324249268 C3.6429998874664307,-3.6410000324249268 2.7239999771118164,1.378999948501587 1.5920000076293945,2.509999990463257z"></path>
      </g>
    </g>
    <g style="display: none;" transform="matrix(0,0,0,0,14.90664291381836,56.7038688659668)" opacity="1">
      <g opacity="1" transform="matrix(1,0,0,1,22.358999252319336,38.64099884033203)">
        <path fill="rgb(32,149,243)" fill-opacity="1" d=" M1.5920000076293945,2.509999990463257 C0.46000000834465027,3.6419999599456787 -1.3769999742507935,3.6419999599456787 -2.509999990463257,2.509999990463257 C-3.6429998874664307,1.3760000467300415 -3.6419999599456787,-0.46000000834465027 -2.509999990463257,-1.5920000076293945 C-1.3769999742507935,-2.7239999771118164 3.6429998874664307,-3.6410000324249268 3.6429998874664307,-3.6410000324249268 C3.6429998874664307,-3.6410000324249268 2.7239999771118164,1.378999948501587 1.5920000076293945,2.509999990463257z"></path>
      </g>
    </g>
    <g transform="matrix(0,0,0,0,4.801108360290527,52.954044342041016)" opacity="1" style="display: none;">
      <g opacity="1" transform="matrix(1,0,0,1,12.357999801635742,34.641998291015625)">
        <path fill="rgb(32,149,243)" fill-opacity="1" d=" M1.5920000076293945,2.507999897003174 C0.46000000834465027,3.6410000324249268 -1.3760000467300415,3.6410000324249268 -2.509000062942505,2.507999897003174 C-3.6419999599456787,1.3760000467300415 -3.6410000324249268,-0.460999995470047 -2.509000062942505,-1.5920000076293945 C-1.3769999742507935,-2.7239999771118164 3.6419999599456787,-3.6410000324249268 3.6419999599456787,-3.6410000324249268 C3.6419999599456787,-3.6410000324249268 2.7239999771118164,1.3769999742507935 1.5920000076293945,2.507999897003174z"></path>
      </g>
    </g>
    <g style="display: block;" transform="matrix(0.9942907094955444,0,0,0.9942907094955444,0.4172239303588867,-0.6710205078125)" opacity="1">
      <g opacity="1" transform="matrix(1,0,0,1,12.357999801635742,34.641998291015625)">
        <path fill="rgb(32,149,243)" fill-opacity="1" d=" M1.5920000076293945,2.507999897003174 C0.46000000834465027,3.6410000324249268 -1.3760000467300415,3.6410000324249268 -2.509000062942505,2.507999897003174 C-3.6419999599456787,1.3760000467300415 -3.6410000324249268,-0.460999995470047 -2.509000062942505,-1.5920000076293945 C-1.3769999742507935,-2.7239999771118164 3.6419999599456787,-3.6410000324249268 3.6419999599456787,-3.6410000324249268 C3.6419999599456787,-3.6410000324249268 2.7239999771118164,1.3769999742507935 1.5920000076293945,2.507999897003174z"></path>
      </g>
    </g>
    <g style="display: none;" transform="matrix(0,0,0,0,4.800246238708496,52.95610046386719)" opacity="1">
      <g opacity="1" transform="matrix(1,0,0,1,12.357999801635742,34.641998291015625)">
        <path fill="rgb(32,149,243)" fill-opacity="1" d=" M1.5920000076293945,2.507999897003174 C0.46000000834465027,3.6410000324249268 -1.3760000467300415,3.6410000324249268 -2.509000062942505,2.507999897003174 C-3.6419999599456787,1.3760000467300415 -3.6410000324249268,-0.460999995470047 -2.509000062942505,-1.5920000076293945 C-1.3769999742507935,-2.7239999771118164 3.6419999599456787,-3.6410000324249268 3.6419999599456787,-3.6410000324249268 C3.6419999599456787,-3.6410000324249268 2.7239999771118164,1.3769999742507935 1.5920000076293945,2.507999897003174z"></path>
      </g>
    </g>
    <g style="display: none;" transform="matrix(0,0,0,0,4.800713062286377,52.95499038696289)" opacity="1">
      <g opacity="1" transform="matrix(1,0,0,1,12.357999801635742,34.641998291015625)">
        <path fill="rgb(32,149,243)" fill-opacity="1" d=" M1.5920000076293945,2.507999897003174 C0.46000000834465027,3.6410000324249268 -1.3760000467300415,3.6410000324249268 -2.509000062942505,2.507999897003174 C-3.6419999599456787,1.3760000467300415 -3.6410000324249268,-0.460999995470047 -2.509000062942505,-1.5920000076293945 C-1.3769999742507935,-2.7239999771118164 3.6419999599456787,-3.6410000324249268 3.6419999599456787,-3.6410000324249268 C3.6419999599456787,-3.6410000324249268 2.7239999771118164,1.3769999742507935 1.5920000076293945,2.507999897003174z"></path>
      </g>
    </g>
    <g transform="matrix(1,0,0,1,0,0)" opacity="1" style="display: block;">
      <g opacity="1" transform="matrix(1,0,0,1,29.5,13.5)">
        <path fill="rgb(186,222,250)" fill-opacity="1" d=" M0,-8.5 C-4.693999767303467,-8.5 -8.5,-4.693999767303467 -8.5,0 C-8.5,4.693999767303467 -4.693999767303467,8.5 0,8.5 C4.693999767303467,8.5 8.5,4.693999767303467 8.5,0 C8.5,-4.693999767303467 4.693999767303467,-8.5 0,-8.5z"></path>
      </g>
      <g opacity="1" transform="matrix(1,0,0,1,24,21.94700050354004)">
        <path fill="rgb(186,222,250)" fill-opacity="1" d=" M13,-7.052999973297119 C9.133999824523926,-7.052999973297119 6,-3.9189999103546143 6,-0.05299999937415123 C6,3.812999963760376 9.133999824523926,6.947000026702881 13,6.947000026702881 C16.865999221801758,6.947000026702881 20,3.812999963760376 20,-0.05299999937415123 C20,-3.9189999103546143 16.865999221801758,-7.052999973297119 13,-7.052999973297119z M-13,-6.947000026702881 C-16.865999221801758,-6.947000026702881 -20,-3.812999963760376 -20,0.05299999937415123 C-20,3.9189999103546143 -16.865999221801758,7.052999973297119 -13,7.052999973297119 C-9.133999824523926,7.052999973297119 -6,3.9189999103546143 -6,0.05299999937415123 C-6,-3.812999963760376 -9.133999824523926,-6.947000026702881 -13,-6.947000026702881z"></path>
      </g>
      <g opacity="1" transform="matrix(1,0,0,1,17.5,14.5)">
        <path fill="rgb(186,222,250)" fill-opacity="1" d=" M0,-6.5 C-3.5899999141693115,-6.5 -6.5,-3.5899999141693115 -6.5,0 C-6.5,3.5899999141693115 -3.5899999141693115,6.5 0,6.5 C3.5899999141693115,6.5 6.5,3.5899999141693115 6.5,0 C6.5,-3.5899999141693115 3.5899999141693115,-6.5 0,-6.5z"></path>
      </g>
      <g opacity="1" transform="matrix(1,0,0,1,25,19.89299964904785)">
        <path fill="rgb(186,222,250)" fill-opacity="1" d=" M0,-7 C-3.865999937057495,-7 -7,-3.865999937057495 -7,0 C-7,3.865999937057495 -3.865999937057495,7 0,7 C3.865999937057495,7 7,3.865999937057495 7,0 C7,-3.865999937057495 3.865999937057495,-7 0,-7z"></path>
      </g>
      <g opacity="1" transform="matrix(1,0,0,1,23.5,24.5)">
        <path fill="rgb(186,222,250)" fill-opacity="1" d=" M-16.5,0.5 C-16.5,2.7090001106262207 -14.708999633789062,4.5 -12.5,4.5 C-12.5,4.5 12.5,4.5 12.5,4.5 C14.708999633789062,4.5 16.5,2.7090001106262207 16.5,0.5 C16.5,0.5 16.5,-0.5 16.5,-0.5 C16.5,-2.7090001106262207 14.708999633789062,-4.5 12.5,-4.5 C12.5,-4.5 -12.5,-4.5 -12.5,-4.5 C-14.708999633789062,-4.5 -16.5,-2.7090001106262207 -16.5,-0.5 C-16.5,-0.5 -16.5,0.5 -16.5,0.5z"></path>
      </g>
    </g>
  </g>
</svg>